<?xml version="1.0" encoding="utf-8"?>
<!-- Generator: Adobe Illustrator 27.1.1, SVG Export Plug-In . SVG Version: 6.00 Build 0)  -->
<svg version="1.1" id="Слой_1" xmlns="http://www.w3.org/2000/svg" xmlns:xlink="http://www.w3.org/1999/xlink" x="0px" y="0px"
	 viewBox="0 0 385.8 262.4" style="enable-background:new 0 0 385.8 262.4;" xml:space="preserve">
<style type="text/css">
	.st0{display:none;fill:#3C3C3B;}
	.st1{fill:#EC6807;}
	.st2{fill:#FFFFFF;}
	.st3{fill:#706F6F;}
</style>
<g>
	<path d="M81.4,193.4l7.2-6.6c0.3-0.3,0.5-0.6,0.6-1c0-0.4-0.1-0.8-0.4-1.1c-0.6-0.7-1.4-0.7-2.1-0.1l-9.5,8.6l1.9-7.1
		c0.3-0.9-0.1-1.5-1.1-1.8c-0.5-0.1-0.9-0.1-1.2,0.1c-0.3,0.2-0.5,0.5-0.6,1l-4.8,18.1c-0.1,0.4-0.1,0.8,0.1,1.1
		c0.2,0.3,0.5,0.6,1,0.7c0.1,0,0.3,0,0.4,0c0.7,0,1.2-0.4,1.4-1.1l1.5-5.6l3.2-2.9l2.5,8.5c0.2,0.9,0.9,1.3,1.8,1.1
		c0.5-0.1,0.8-0.4,1-0.7c0.2-0.3,0.2-0.7,0.1-1.1L81.4,193.4z"/>
	<path d="M104.8,184.3c-0.5-0.1-0.9-0.1-1.2,0.1c-0.3,0.2-0.5,0.5-0.6,1l-4.6,17h-3.9c-0.9,0-1.5-0.3-1.9-0.8
		c-0.5-0.6-0.6-1.3-0.3-2.3l3.5-13.1c0.3-0.9-0.1-1.5-1.1-1.8c-0.5-0.1-0.9-0.1-1.2,0.1c-0.3,0.2-0.5,0.5-0.6,1l-3.5,13
		c-0.5,1.9-0.2,3.6,0.8,4.9c1,1.4,2.5,2.1,4.3,2.1h3.1l-0.3,1.1c-0.3,1.1-0.9,2-1.9,2.8c-1,0.8-2,1.2-3,1.2h-4
		c-0.9,0-1.5,0.6-1.5,1.5c0,1,0.6,1.5,1.5,1.5h4c1.8,0,3.4-0.6,4.9-1.8c1.5-1.2,2.5-2.7,2.9-4.3l5.7-21.1
		C106.1,185.2,105.7,184.6,104.8,184.3z"/>
	<path d="M115.6,179.2h7.3c0.9,0,1.5-0.6,1.5-1.5c0-1-0.6-1.5-1.5-1.5h-10c-0.6,0-1.1,0.3-1.3,0.8c-0.3,0.5-0.2,1.1,0.1,1.5l3.6,5.7
		c-1.6,0.1-3.1,0.7-4.4,1.8c-1.6,1.2-2.5,2.7-2.9,4.3l-2.3,8.6c-0.5,1.9-0.2,3.6,0.8,4.9c1,1.3,2.4,2,4.3,2c1.7,0,3.3-0.6,4.9-1.7
		c1.5-1.2,2.4-2.7,2.9-4.4l2.3-8.6c0.1-0.6,0.2-1.2,0.2-1.7c0-1-0.3-2-0.8-2.9L115.6,179.2z M110.8,202.8c-0.9,0-1.5-0.3-1.9-0.9
		c-0.5-0.6-0.6-1.3-0.3-2.3l2.3-8.6c0.3-1.1,0.9-2,1.9-2.8c1-0.8,2-1.2,3-1.2c0.9,0,1.6,0.3,2,0.9c0.2,0.4,0.3,0.8,0.3,1.3
		c0,0.3,0,0.6-0.1,0.9l-2.3,8.6c-0.3,1.1-0.9,2-1.9,2.8C112.7,202.5,111.7,202.8,110.8,202.8z"/>
	<path d="M135,202.3l-0.1,0c-0.1,0-0.2,0-0.3-0.3c-0.1-0.2-0.1-0.4,0-0.7l4.1-15.1c0.2-0.6,0.1-1.1-0.1-1.4
		c-0.3-0.4-0.7-0.5-1.3-0.5h-5c-1.7,0-3.4,0.6-4.9,1.8c-1.6,1.2-2.5,2.7-2.9,4.3l-2.2,8.2c-0.5,1.9-0.2,3.5,0.8,4.9
		c1,1.3,2.4,2,4.3,2c1.7,0,3.2-0.6,4.8-1.7c0.4,0.7,1,1.2,1.8,1.4c0.9,0.3,1.6,0,1.9-0.8C136.2,203.4,135.9,202.7,135,202.3z
		 M127.3,202.4c-0.9,0-1.5-0.3-1.9-0.9c-0.5-0.6-0.6-1.3-0.3-2.3l2.2-8.1c0.3-1.1,0.9-2,1.9-2.8c1-0.8,2-1.2,3-1.2h3.1l-3,11.3
		c-0.3,1.1-0.9,2-1.9,2.8C129.3,202,128.3,202.4,127.3,202.4z"/>
	<path d="M154.1,184.3c-0.5-0.1-0.9-0.1-1.2,0.1c-0.3,0.2-0.5,0.5-0.6,1l-2.1,8h-6.9l1.9-7.2c0.3-0.9-0.1-1.5-1.1-1.8
		c-0.5-0.1-0.9-0.1-1.2,0.1c-0.3,0.2-0.5,0.5-0.6,1l-2.4,9.1c-0.8,3-1.6,6-2.4,9c-0.1,0.4-0.1,0.8,0.1,1.1c0.2,0.3,0.5,0.6,1,0.7
		c0.1,0,0.3,0,0.4,0c0.7,0,1.2-0.4,1.4-1.1l2.1-7.9h7l-1.9,7.1c-0.1,0.4-0.1,0.8,0.1,1.1c0.2,0.3,0.5,0.6,1,0.7
		c0.9,0.2,1.5-0.2,1.8-1.1c0.8-3,1.6-6,2.4-9l2.4-9C155.4,185.2,155.1,184.6,154.1,184.3z"/>
	<path d="M163.4,193.3h-3.6l1.9-7.2c0.3-0.9-0.1-1.5-1.1-1.8c-0.5-0.1-0.9-0.1-1.2,0.1c-0.3,0.2-0.5,0.5-0.6,1l-2.4,9.1
		c-0.8,3-1.6,6-2.4,9c-0.2,0.6-0.1,1,0.1,1.4c0.3,0.3,0.7,0.5,1.3,0.5h5.6c1.6,0,3.1-0.6,4.4-1.6c1.4-1.1,2.3-2.4,2.7-4
		c0.4-1.7,0.2-3.2-0.8-4.5C166.5,193.9,165.1,193.3,163.4,193.3z M161,202.3h-3.6l1.6-6h4.4c0.7,0,1.3,0.2,1.6,0.7
		c0.4,0.5,0.5,1.2,0.2,1.9c-0.3,0.9-0.8,1.7-1.6,2.4C162.7,202,161.8,202.3,161,202.3z"/>
	<path d="M186.7,184.2h-5c-1.8,0-3.4,0.6-4.9,1.8c-1.6,1.2-2.5,2.7-2.9,4.3l-2.2,8c-0.5,1.9-0.2,3.6,0.8,4.9c1,1.4,2.5,2.1,4.3,2.1
		h5c1,0,1.5-0.6,1.5-1.5c0-1-0.6-1.5-1.5-1.5h-5c-0.9,0-1.5-0.3-2-0.8c-0.4-0.6-0.5-1.4-0.3-2.3l2.2-8c0.3-1.1,0.9-2,1.9-2.8
		c1-0.8,2-1.2,3-1.2h5c1,0,1.5-0.6,1.5-1.5C188.2,184.8,187.6,184.2,186.7,184.2z"/>
	<path d="M202.5,186.3c-1-1.4-2.5-2-4.3-2c-1.8,0-3.4,0.6-4.9,1.8c-1.6,1.2-2.5,2.7-2.9,4.3c-0.4,1.3-0.8,2.7-1.1,4
		c-0.4,1.3-0.7,2.7-1,4c-0.5,1.9-0.2,3.6,0.8,4.9c1,1.4,2.5,2.1,4.3,2.1h5c1,0,1.5-0.6,1.5-1.5c0-1-0.6-1.5-1.5-1.5h-5
		c-0.9,0-1.5-0.3-1.9-0.8c-0.5-0.6-0.6-1.3-0.3-2.3l0.8-2.9h8.9c0.7,0,1.2-0.4,1.5-1.2l1.1-4C203.8,189.3,203.5,187.6,202.5,186.3z
		 M198.2,187.2c0.8,0,1.5,0.3,1.9,0.8c0.4,0.6,0.5,1.4,0.3,2.3l-0.8,2.9h-6.9l0.6-2.1c0.3-1.1,0.9-2,1.9-2.8
		C196.1,187.6,197.1,187.2,198.2,187.2z"/>
	<path d="M221.1,184.7c-0.3-0.3-0.7-0.5-1.3-0.5h-5c-0.7,0-1.2,0.3-1.4,0.8l-9.8,18c-0.4,0.8-0.2,1.6,0.6,2.1
		c0.3,0.1,0.5,0.2,0.7,0.2c0.5,0,0.9-0.3,1.3-0.8l9.4-17.3h2.2l-4.3,16.2c-0.1,0.4-0.1,0.8,0.1,1.1c0.2,0.3,0.5,0.6,1,0.7
		c0.9,0.2,1.5-0.2,1.8-1l4.9-18.1C221.4,185.5,221.3,185,221.1,184.7z"/>
	<path d="M229.5,193.3h-3.6l1.9-7.2c0.3-0.9-0.1-1.5-1.1-1.8c-0.5-0.1-0.9-0.1-1.2,0.1c-0.3,0.2-0.5,0.5-0.6,1l-2.4,9.1
		c-0.8,3-1.6,6-2.4,9c-0.2,0.6-0.1,1,0.1,1.4c0.3,0.3,0.7,0.5,1.3,0.5h5.6c1.6,0,3.1-0.6,4.4-1.6c1.4-1.1,2.3-2.4,2.7-4
		c0.4-1.7,0.2-3.2-0.8-4.5C232.6,193.9,231.2,193.3,229.5,193.3z M227.1,202.3h-3.6l1.6-6h4.4c0.7,0,1.3,0.2,1.6,0.7
		c0.4,0.5,0.5,1.2,0.2,1.9c-0.3,0.9-0.8,1.7-1.6,2.4C228.8,202,227.9,202.3,227.1,202.3z"/>
	<path d="M242.8,191.1c0.3-1.1,0.9-2,1.9-2.8c1-0.8,2-1.2,3-1.2h5c1,0,1.5-0.6,1.5-1.5c0-1-0.6-1.5-1.5-1.5h-5
		c-1.8,0-3.4,0.6-4.9,1.8c-1.6,1.2-2.5,2.7-2.9,4.3l-2.2,8c-0.5,1.9-0.2,3.6,0.8,4.9c1,1.4,2.5,2.1,4.3,2.1h5c1,0,1.5-0.6,1.5-1.5
		c0-1-0.6-1.5-1.5-1.5h-5c-0.9,0-1.5-0.3-2-0.8c-0.4-0.6-0.5-1.4-0.3-2.3L242.8,191.1z"/>
	<path d="M274.8,186.3c-1-1.4-2.5-2-4.3-2h-11.1c-0.7,0-1.2,0.4-1.4,1.1l-4.8,18.1c-0.1,0.4-0.1,0.8,0.1,1.1c0.2,0.3,0.5,0.6,1,0.7
		c0.1,0,0.3,0,0.4,0c0.7,0,1.2-0.4,1.4-1.1l4.6-17h4.9l-4.3,16.2c-0.1,0.4-0.1,0.8,0.1,1.1c0.2,0.3,0.5,0.6,1,0.7
		c0.9,0.2,1.5-0.2,1.8-1.1l4.6-17h1.9c0.8,0,1.5,0.3,1.9,0.8c0.4,0.6,0.5,1.4,0.3,2.3l-3.5,13.1c-0.1,0.4-0.1,0.8,0.1,1.1
		c0.2,0.3,0.5,0.6,1,0.7c0.9,0.2,1.5-0.2,1.8-1.1l3.5-13.1C276,189.3,275.8,187.6,274.8,186.3z"/>
	<path d="M287.1,184.2h-5c-0.8,0-1.3,0.4-1.5,1.2c-1.2,4.4-2.4,8.7-3.5,13l-3.5,13c-0.1,0.5-0.1,0.9,0.1,1.2c0.2,0.3,0.5,0.5,1,0.6
		c0.2,0.1,0.4,0.1,0.5,0.1c0.2,0,0.5-0.1,0.7-0.2c0.3-0.2,0.5-0.5,0.6-1l1.9-6.9h3.9c1.7,0,3.3-0.6,4.9-1.8c1.5-1.1,2.5-2.6,2.9-4.3
		l2.2-8.1c0.5-1.8,0.2-3.5-0.8-4.9C290.4,184.9,288.9,184.2,287.1,184.2z M282.2,202.3h-3.1l4.1-15.1h3.9c0.8,0,1.5,0.3,1.9,0.8
		c0.4,0.6,0.5,1.4,0.3,2.3l-2.2,8c-0.3,1-0.9,2-1.9,2.8C284.3,201.9,283.3,202.3,282.2,202.3z"/>
	<path d="M303.6,183.7c-1.7,0-3.3,0.6-4.9,1.8c-1.5,1.2-2.5,2.7-2.9,4.4l-2.4,9l0,0c-0.5,1.9-0.2,3.5,0.8,4.9c1,1.3,2.4,2,4.3,2
		c1.7,0,3.4-0.6,4.9-1.8c1.5-1.1,2.5-2.6,3-4.4l2.4-9c0.5-1.9,0.2-3.5-0.8-4.9C306.9,184.4,305.4,183.7,303.6,183.7z M298.5,202.8
		c-0.9,0-1.5-0.3-1.9-0.9c-0.5-0.6-0.6-1.3-0.3-2.3l2.4-9c0.3-1,0.9-2,1.9-2.8c1-0.8,2-1.2,3-1.2c0.8,0,1.5,0.3,2,0.8
		c0.4,0.6,0.5,1.4,0.3,2.3l-2.4,9c-0.3,1-0.9,2-1.9,2.8C300.6,202.4,299.6,202.8,298.5,202.8z"/>
	<path d="M325.3,184.3c-0.5-0.1-0.9-0.1-1.2,0.1c-0.3,0.2-0.5,0.5-0.6,1l-4.6,17h-3.9c-0.9,0-1.5-0.3-1.9-0.8
		c-0.5-0.6-0.6-1.3-0.3-2.3l3.5-13.1c0.3-0.9-0.1-1.5-1.1-1.8c-0.5-0.1-0.9-0.1-1.2,0.1c-0.3,0.2-0.5,0.5-0.6,1l-3.5,13
		c-0.5,1.9-0.2,3.6,0.8,4.9c1,1.4,2.5,2.1,4.3,2.1h5c0.8,0,1.3-0.4,1.5-1.2l4.8-18C326.7,185.2,326.3,184.6,325.3,184.3z"/>
	<path d="M319.7,179.2h4c1,0,1.5-0.6,1.5-1.5c0-1-0.6-1.5-1.5-1.5h-4c-0.9,0-1.5,0.6-1.5,1.5C318.2,178.6,318.8,179.2,319.7,179.2z"
		/>
</g>
<g>
	<g>
		<polygon class="st3" points="71.2,167.5 112.9,167.5 71.2,118 		"/>
		<polygon class="st3" points="109.4,60.6 71.2,60.6 71.2,103.4 		"/>
		<path class="st3" d="M142,114.8v-2.6c0-18,5-47.1,45.3-51.6h-34.6l-44.7,48l49.5,59h36.4l0,0C150.3,163.7,142,133.1,142,114.8z"/>
	</g>
	<path class="st3" d="M225.1,89.5c-3.8-2.4-9.3-4.1-17.2-4.1h-1.9c-21.2,0-26.4,14.5-26.4,27.2v0.2c0,12.9,6.1,28.1,27.2,28.1h1.9
		c7.9,0,13.4-1.9,17.1-4.4c-8.2-5.5-10.9-15.2-10.9-23.8v-0.2C214.8,104.1,217.2,94.7,225.1,89.5z"/>
	<path class="st3" d="M227.9,167.4c3.3,0.3,6.8,0.5,10.6,0.5H253c44.8,0,52.2-26.8,53.6-43.4h-35.2
		C270.2,139.8,263.8,163.6,227.9,167.4z"/>
	<g>
		<path class="st3" d="M316.4,75.4v0.4c0,6.7-4.4,9.5-15.7,11.5c-2,0.4-4.1,0.8-5.8,1.2c-7.2,1.5-8.5,2.7-8.5,3.5h19.3
			c-0.2-1.2-0.5-2.3-0.9-3.5c1.7-0.4,3.8-0.8,5.8-1.2c11.2-2,15.7-4.8,15.7-11.5v-0.4c0-6.6-4.1-11.7-18.5-11.7h-2.5
			c-1.2,0-2.4,0.1-3.5,0.1C313.1,64.8,316.4,69.5,316.4,75.4z"/>
		<rect x="317.2" y="92" class="st3" width="9.9" height="9.2"/>
		<path class="st3" d="M276.2,95.5c0-5.5,1.3-10.6,15.6-14.6c1.9-0.5,4-1.1,5.7-1.5c5.3-1.4,6.4-2.2,6.4-3.9v0
			c0-1.8-1.2-3.3-7.1-3.3c-7,0-7.6,3.6-7.7,5.3h-12.3v-0.3c0-3.4,1.1-8.3,6.7-11.1c-8.5-3.7-20-6-35.7-6h-14.4
			c-3.4,0-6.6,0.2-9.6,0.4c42.4,3.5,47.5,27,47.5,40.6v0.2l4.8,0V95.5z"/>
	</g>
</g>
</svg>
